<svg width="1041" height="372" viewBox="0 0 1041 372" xmlns="http://www.w3.org/2000/svg"><title>tpLogo</title><g fill="none" fill-rule="evenodd"><path d="M76.328 253.89c2.728 8.556 7.75 12.834 15.066 12.834 7.316 0 13.64-3.224 18.972-9.672 5.332-6.448 7.998-15.996 7.998-28.644v-81.096c0-10.664-2.108-19.716-6.324-27.156-4.216-7.44-10.416-11.16-18.6-11.16-8.184 0-13.764 5.456-16.74 16.368-2.976 10.912-4.464 30.008-4.464 57.288v19.344c0 26.04 1.364 43.338 4.092 51.894zM123.2 279l-4.092-26.04c-8.432 19.84-25.544 29.76-51.336 29.76-21.328 0-37.882-7.688-49.662-23.064C6.33 244.28.44 221.34.44 190.836c0-61.752 24.552-92.628 73.656-92.628 21.824 0 36.208 6.076 43.152 18.228V6.696H94.556V0h93v272.304h18.228V279H123.2zm181.536-87.42h10.788v-28.644c0-23.56-1.302-39.37-3.906-47.43-2.604-8.06-7.626-12.09-15.066-12.09-4.464 0-8.494 1.178-12.09 3.534s-5.394 5.58-5.394 9.672c0 4.092.744 8.246 2.232 12.462h9.3c1.984 5.208 2.976 11.47 2.976 18.786 0 7.316-3.1 13.64-9.3 18.972-6.2 5.332-14.012 7.998-23.436 7.998-21.328 0-31.992-10.292-31.992-30.876 0-30.504 25.916-45.756 77.748-45.756 29.512 0 49.91 5.022 61.194 15.066 11.284 10.044 16.926 28.458 16.926 55.242v75.516c0 12.896 3.596 19.344 10.788 19.344 8.432 0 13.392-12.772 14.88-38.316l5.58.372c-.992 21.824-5.084 36.828-12.276 45.012-7.192 8.184-18.972 12.276-35.34 12.276-29.76 0-46.872-9.176-51.336-27.528-3.224 9.424-8.06 16.368-14.508 20.832-6.448 4.464-15.872 6.696-28.272 6.696-36.704 0-55.056-15.004-55.056-45.012 0-17.608 7.006-29.698 21.018-36.27 14.012-6.572 35.526-9.858 64.542-9.858zm-12.834 70.68c1.364 3.72 3.968 5.58 7.812 5.58 3.844 0 7.44-3.162 10.788-9.486 3.348-6.324 5.022-15.066 5.022-26.226v-34.596h-2.604c-15.376 0-23.064 11.284-23.064 33.852v5.952c0 12.896.682 21.204 2.046 24.924zm154.38-196.044c-5.58-6.696-8.37-15.004-8.37-24.924s3.038-18.104 9.114-24.552c6.076-6.448 15.314-9.672 27.714-9.672 12.4 0 21.824 2.914 28.272 8.742 6.448 5.828 9.672 14.136 9.672 24.924s-3.1 19.406-9.3 25.854c-6.2 6.448-15.872 9.672-29.016 9.672-13.144 0-22.506-3.348-28.086-10.044zm-28.086 35.712h91.14v170.376h20.832V279H419.684v-6.696h20.46v-163.68h-21.948v-6.696zM536.12 0h91.14v272.304h20.832V279H537.608v-6.696h20.46V6.696H536.12V0zM653.3 108.624v-6.696h107.88v6.696h-20.088l40.548 123.504 43.152-123.504h-24.924v-6.696h52.452v6.696h-18.6l-69.564 200.508c-8.184 23.312-17.36 39.618-27.528 48.918-10.168 9.3-22.568 13.95-37.2 13.95-14.632 0-26.164-3.348-34.596-10.044-8.432-6.696-12.648-15.252-12.648-25.668 0-10.416 2.728-18.352 8.184-23.808 5.456-5.456 12.648-8.184 21.576-8.184 20.584 0 30.876 8.556 30.876 25.668 0 3.72-.744 8.184-2.232 13.392h-13.02c-1.984 5.704-2.232 10.416-.744 14.136 1.488 3.72 4.836 5.58 10.044 5.58 10.168 0 19.22-5.022 27.156-15.066s15.5-25.358 22.692-45.942L764.9 279h-32.736l-63.612-170.376H653.3zM898.34 282.72v-66.588h4.464c6.448 21.576 15.128 36.704 26.04 45.384 10.912 8.68 24.552 13.02 40.92 13.02 25.296 0 37.944-8.06 37.944-24.18 0-6.944-3.1-12.152-9.3-15.624-9.672-5.456-22.072-9.672-37.2-12.648-16.864-4.464-31-10.416-42.408-17.856-13.64-8.928-20.46-23.064-20.46-42.408s5.952-34.782 17.856-46.314c11.904-11.532 27.776-17.298 47.616-17.298 12.152 0 24.676 2.852 37.572 8.556 4.712 1.984 8.308 2.976 10.788 2.976 2.48 0 4.588-.868 6.324-2.604 1.736-1.736 3.844-4.96 6.324-9.672h4.092v56.916h-4.464c-12.648-32.24-32.24-48.36-58.776-48.36-11.656 0-20.336 2.046-26.04 6.138-5.704 4.092-8.556 9.238-8.556 15.438 0 3.72.868 6.634 2.604 8.742 1.736 2.108 3.1 3.658 4.092 4.65.992.992 2.604 2.046 4.836 3.162s4.092 1.984 5.58 2.604c1.488.62 3.782 1.426 6.882 2.418 3.1.992 5.394 1.612 6.882 1.86 16.864 4.216 29.016 7.874 36.456 10.974 7.44 3.1 14.508 6.882 21.204 11.346 13.64 9.424 20.46 24.614 20.46 45.57s-6.2 36.828-18.6 47.616c-12.4 10.788-29.388 16.182-50.964 16.182-15.376 0-30.256-3.596-44.64-10.788-2.976-1.984-5.332-2.976-7.068-2.976-5.456 0-10.788 4.588-15.996 13.764h-4.464z" fill="#383C43"/><path d="M879.959 111.404l-3.357-5.222c23.126-15.169 34.689-30.337 34.689-45.506 0-7.957-3.357-12.433-10.071-13.428l-15.666 14.547c-4.973-1.74-9.511-4.911-13.615-9.512-4.103-4.6-6.154-10.506-6.154-17.717 0-7.211 2.86-13.366 8.579-18.464 5.72-5.097 13.241-7.646 22.567-7.646 9.325 0 17.033 3.17 23.125 9.512 6.093 6.34 9.139 15.106 9.139 26.296 0 24.37-16.412 46.75-49.236 67.14z" fill="#43C5E2"/><path d="M656 70.85V55.1h-2.75v-.9H656v-6.45l9.3-2.3v8.75h6.5v.9h-6.5v16.85c0 1.567.158 2.717.475 3.45.317.733.975 1.1 1.975 1.1s1.875-.5 2.625-1.5 1.242-2.367 1.475-4.1l.85.1c-.267 2.3-1 4.125-2.2 5.475-1.2 1.35-3.183 2.025-5.95 2.025-2.767 0-4.883-.55-6.35-1.65-1.467-1.1-2.2-3.1-2.2-6zm33.35-2.7V63.9c0-3.233-.175-5.592-.525-7.075-.35-1.483-1.158-2.225-2.425-2.225-.733 0-1.325.208-1.775.625-.45.417-.775 1.108-.975 2.075-.3 1.5-.45 3.783-.45 6.85v3.9c0 3.633.108 5.817.325 6.55.217.733.442 1.333.675 1.8.367.8 1.083 1.2 2.15 1.2 1.3 0 2.15-.75 2.55-2.25.3-1.067.45-3.467.45-7.2zM676.8 75.3c-2.133-2.133-3.2-5.192-3.2-9.175 0-3.983 1.142-7.05 3.425-9.2 2.283-2.15 5.492-3.225 9.625-3.225s7.217.992 9.25 2.975c2.033 1.983 3.05 5.008 3.05 9.075 0 8.5-4.233 12.75-12.7 12.75-4.167 0-7.317-1.067-9.45-3.2zm41.3-17.675c-.333-1.183-.983-1.775-1.95-1.775s-1.833.6-2.6 1.8c-.767 1.2-1.15 2.85-1.15 4.95v9.3c0 1.433.292 2.65.875 3.65s1.417 1.5 2.5 1.5 1.825-.733 2.225-2.2c.4-1.467.6-4.033.6-7.7v-2.6c0-3.433-.167-5.742-.5-6.925zM712.4 40.5V58c1.267-2.867 3.433-4.3 6.5-4.3 6.233 0 9.35 4.15 9.35 12.45 0 4.233-.858 7.35-2.575 9.35s-4.292 3-7.725 3c-1.733 0-3.058-.267-3.975-.8-.917-.533-1.542-1.417-1.875-2.65l-.35 2.95h-11.4v-.9h2.75V41.4h-2.75v-.9h12.05zm17.1 14.6v-.9H744v.9h-2.7l5.45 16.6 5.8-16.6h-3.35v-.9h7.05v.9h-2.5l-9.35 26.95c-1.1 3.133-2.333 5.325-3.7 6.575s-3.033 1.875-5 1.875-3.517-.45-4.65-1.35c-1.133-.9-1.7-2.05-1.7-3.45 0-1.4.367-2.467 1.1-3.2.733-.733 1.7-1.1 2.9-1.1 2.767 0 4.15 1.15 4.15 3.45 0 .5-.1 1.1-.3 1.8h-1.75c-.267.767-.3 1.4-.1 1.9.2.5.65.75 1.35.75 1.367 0 2.583-.675 3.65-2.025 1.067-1.35 2.083-3.408 3.05-6.175l1.1-3.1h-4.4l-8.55-22.9h-2.05zm30.5.3l-.45-.7c3.1-2.033 4.65-4.067 4.65-6.1 0-1.067-.45-1.667-1.35-1.8l-2.1 1.95c-.667-.233-1.275-.658-1.825-1.275-.55-.617-.825-1.408-.825-2.375 0-.967.383-1.792 1.15-2.475.767-.683 1.775-1.025 3.025-1.025s2.283.425 3.1 1.275c.817.85 1.225 2.025 1.225 3.525 0 3.267-2.2 6.267-6.6 9zm10.5 23.1v-8.95h.6c.867 2.9 2.033 4.933 3.5 6.1 1.467 1.167 3.3 1.75 5.5 1.75 3.4 0 5.1-1.083 5.1-3.25 0-.933-.417-1.633-1.25-2.1-1.3-.733-2.967-1.3-5-1.7-2.267-.6-4.167-1.4-5.7-2.4-1.833-1.2-2.75-3.1-2.75-5.7s.8-4.675 2.4-6.225c1.6-1.55 3.733-2.325 6.4-2.325 1.633 0 3.317.383 5.05 1.15.633.267 1.117.4 1.45.4.333 0 .617-.117.85-.35.233-.233.517-.667.85-1.3h.55v7.65h-.6c-1.7-4.333-4.333-6.5-7.9-6.5-1.567 0-2.733.275-3.5.825-.767.55-1.15 1.242-1.15 2.075 0 .5.117.892.35 1.175.233.283.417.492.55.625.133.133.35.275.65.425.3.15.55.267.75.35.2.083.508.192.925.325.417.133.725.217.925.25 2.267.567 3.9 1.058 4.9 1.475 1 .417 1.95.925 2.85 1.525 1.833 1.267 2.75 3.308 2.75 6.125s-.833 4.95-2.5 6.4c-1.667 1.45-3.95 2.175-6.85 2.175-2.067 0-4.067-.483-6-1.45-.4-.267-.717-.4-.95-.4-.733 0-1.45.617-2.15 1.85h-.6z" fill="#313131"/></g></svg>